<svg width="306" height="384" viewBox="0 0 306 384" fill="none" xmlns="http://www.w3.org/2000/svg">
<path d="M84.4219 341.098C84.4219 346.957 83.3639 352.491 81.248 357.699C79.1322 362.745 76.2025 367.139 72.459 370.883C68.7155 374.626 64.321 377.556 59.2754 379.672C54.2298 381.951 48.7773 383.09 42.918 383.09C37.2214 383.09 31.7689 381.951 26.5605 379.672C21.515 377.556 17.0391 374.626 13.1328 370.883C9.38932 367.139 6.37826 362.745 4.09961 357.699C1.98372 352.491 0.925781 346.957 0.925781 341.098C0.925781 335.401 1.98372 330.03 4.09961 324.984C6.37826 319.939 9.38932 315.544 13.1328 311.801C17.0391 308.057 21.515 305.128 26.5605 303.012C31.7689 300.733 37.2214 299.594 42.918 299.594C48.7773 299.594 54.2298 300.733 59.2754 303.012C64.321 305.128 68.7155 308.057 72.459 311.801C76.2025 315.544 79.1322 319.939 81.248 324.984C83.3639 330.03 84.4219 335.401 84.4219 341.098ZM255.076 366C238.963 366 223.826 362.989 209.666 356.967C195.506 350.782 183.055 342.4 172.312 331.82C161.733 321.078 153.351 308.627 147.166 294.467C141.144 280.307 138.133 265.17 138.133 249.057V171.42H105.662V105.014H138.133V0.521484H204.539V105.014H305.613V171.42H204.539V249.057C204.539 256.055 205.841 262.647 208.445 268.832C211.049 274.854 214.63 280.144 219.188 284.701C223.745 289.258 229.116 292.921 235.301 295.688C241.486 298.292 248.077 299.594 255.076 299.594H305.613V366H255.076Z" fill="#4D0061"/>
</svg>
