<svg width="1823" height="544" viewBox="0 0 1823 544" fill="none" xmlns="http://www.w3.org/2000/svg">
<path d="M584.312 133.625C585.186 133.625 586.059 133.625 586.958 133.626C607.639 133.675 627.478 135.823 647 143C648.308 143.458 649.617 143.915 650.926 144.371C671.492 151.671 690.547 161.521 707 176C707.828 176.718 708.655 177.436 709.508 178.176C712.043 180.413 714.528 182.693 717 185C717.862 185.797 718.725 186.593 719.613 187.414C743.762 210.55 759.813 242.152 768.625 274.125C768.819 274.809 769.014 275.494 769.214 276.199C773.679 293.148 774.542 310.247 774.438 327.687C774.435 328.738 774.433 329.789 774.43 330.872C774.375 346.562 773.735 361.69 770 377C769.845 377.673 769.69 378.347 769.531 379.041C768.576 383.115 767.363 387.046 766 391C765.759 391.707 765.518 392.415 765.27 393.144C755.009 423.011 739.725 448.134 718 471C717.383 471.682 716.765 472.364 716.129 473.066C693.047 497.691 657.667 515.06 625 522C623.173 522.4 623.173 522.4 621.309 522.808C610.302 524.998 599.633 525.464 588.425 525.391C585.503 525.375 582.582 525.391 579.66 525.41C568.108 525.422 557.287 524.437 546 522C544.868 521.777 543.737 521.554 542.571 521.325C526.508 518.122 511.336 511.777 497 504C495.248 503.078 495.248 503.078 493.461 502.137C449.054 477.928 417.591 435.759 403.312 387.695C402 383.096 400.819 378.474 399.75 373.812C399.599 373.161 399.448 372.51 399.292 371.84C396.255 357.749 395.625 343.731 395.687 329.375C395.689 328.497 395.691 327.619 395.693 326.714C395.74 313.299 396.174 300.163 399 287C399.172 286.2 399.343 285.4 399.52 284.575C403.575 266.45 410.216 249.332 419 233C419.359 232.323 419.717 231.646 420.086 230.949C425.011 221.689 430.376 213.171 437 205C437.425 204.473 437.851 203.946 438.289 203.403C448.597 190.706 459.895 179.773 473 170C473.83 169.375 474.66 168.75 475.516 168.105C488.696 158.534 502.977 151.189 518 145C519.406 144.402 519.406 144.402 520.84 143.793C526.818 141.422 533.015 139.903 539.25 138.375C540.5 138.065 540.5 138.065 541.775 137.749C555.925 134.42 569.845 133.592 584.312 133.625Z" fill="#4D0061"/>
<path d="M1490 0C1521.35 0 1552.7 0 1585 0C1585 53.79 1585 107.58 1585 163C1590.28 159.7 1595.56 156.4 1601 153C1615.91 145.835 1630.41 140.978 1647.12 140.727C1647.88 140.714 1648.65 140.701 1649.44 140.688C1693.07 140.11 1733.1 151.794 1765.76 181.945C1767.69 183.717 1769.66 185.398 1771.69 187.062C1800.86 211.92 1818.91 254.471 1822 292C1822.35 299.507 1822.25 307.028 1822.23 314.541C1822.23 316.779 1822.23 319.018 1822.23 321.257C1822.23 327.291 1822.22 333.325 1822.2 339.359C1822.19 345.681 1822.19 352.003 1822.19 358.325C1822.18 368.922 1822.17 379.519 1822.15 390.116C1822.13 401.024 1822.12 411.932 1822.11 422.839C1822.11 423.513 1822.11 424.187 1822.11 424.882C1822.11 428.264 1822.1 431.647 1822.1 435.029C1822.08 463.019 1822.04 491.01 1822 519C1790.32 519 1758.64 519 1726 519C1726.02 512.308 1726.03 505.615 1726.05 498.72C1726.1 476.611 1726.13 454.503 1726.16 432.395C1726.16 429.724 1726.16 427.054 1726.16 424.383C1726.17 423.72 1726.17 423.056 1726.17 422.372C1726.18 412.308 1726.2 402.245 1726.23 392.181C1726.26 380.495 1726.28 368.809 1726.28 357.123C1726.29 350.938 1726.3 344.753 1726.32 338.567C1726.34 332.74 1726.34 326.912 1726.34 321.085C1726.34 318.952 1726.35 316.818 1726.36 314.685C1726.43 300.707 1725.85 288.364 1719.19 275.75C1718.83 275.067 1718.48 274.383 1718.12 273.679C1715.51 268.734 1712.75 264.177 1709 260C1708.37 259.277 1707.74 258.554 1707.09 257.809C1696.31 246.225 1680.59 237.686 1664.57 236.877C1641.45 236.205 1623.68 240.349 1606.31 256.5C1605.17 257.737 1605.17 257.737 1604 259C1603.55 259.441 1603.11 259.882 1602.65 260.336C1590.48 273.153 1585.86 290.158 1585.84 307.352C1585.84 308.261 1585.83 309.171 1585.83 310.108C1585.81 313.137 1585.8 316.166 1585.79 319.195C1585.79 321.374 1585.78 323.552 1585.76 325.731C1585.74 331.633 1585.72 337.535 1585.7 343.437C1585.67 349.61 1585.65 355.783 1585.62 361.955C1585.57 373.639 1585.53 385.322 1585.48 397.006C1585.43 410.309 1585.38 423.613 1585.32 436.916C1585.21 464.277 1585.1 491.639 1585 519C1553.65 519 1522.3 519 1490 519C1490 347.73 1490 176.46 1490 0Z" fill="#4E0161"/>
<path d="M787 148C818.02 148 849.04 148 881 148C880.999 154.554 880.998 161.109 880.997 167.862C880.997 189.563 881.03 211.264 881.08 232.965C881.11 246.117 881.128 259.269 881.12 272.422C881.113 283.893 881.127 295.365 881.166 306.837C881.186 312.904 881.196 318.97 881.18 325.037C881.166 330.763 881.18 336.49 881.215 342.216C881.223 344.302 881.221 346.388 881.207 348.474C881.069 372.023 886.294 394.174 903.25 411.344C918.144 425.73 935.807 430.577 956.148 430.56C973.812 430.009 988.832 420.29 1001 408C1010.57 397.758 1017.61 384.608 1021 371C1021.25 370.016 1021.25 370.016 1021.5 369.012C1023.64 359.201 1023.31 349.277 1023.32 339.29C1023.33 337.2 1023.34 335.11 1023.35 333.019C1023.38 327.372 1023.39 321.724 1023.4 316.076C1023.42 310.163 1023.45 304.251 1023.47 298.339C1023.52 287.155 1023.56 275.971 1023.59 264.787C1023.63 249.665 1023.7 234.544 1023.76 219.423C1023.85 195.615 1023.92 171.808 1024 148C1055.02 148 1086.04 148 1118 148C1118 270.43 1118 392.86 1118 519C1110.41 519 1102.82 519 1095 519C1087.05 510.212 1087.05 510.212 1084.93 506.18C1082 500.876 1078.56 496.102 1074.94 491.25C1071.52 486.563 1068.18 481.85 1065 477C1061.06 478.336 1058.7 479.974 1055.75 482.875C1035.68 501.396 1009.43 515.25 983 522C982.027 522.26 981.054 522.519 980.051 522.787C970.142 525.199 960.653 525.517 950.5 525.438C949.664 525.434 948.827 525.431 947.966 525.427C934.652 525.35 921.891 524.59 909 521C908.132 520.759 907.264 520.517 906.37 520.269C887.944 514.951 870.685 507.042 855 496C853.96 495.277 852.919 494.554 851.848 493.809C826.894 475.579 809.006 450.73 798 422C797.629 421.084 797.629 421.084 797.251 420.149C785.042 389.645 786.301 356.654 786.493 324.423C786.525 318.2 786.527 311.976 786.533 305.753C786.549 294.021 786.589 282.289 786.64 270.556C786.679 261.18 786.707 251.804 786.725 242.427C786.727 241.764 786.728 241.1 786.729 240.416C786.736 237.084 786.742 233.752 786.748 230.42C786.8 202.946 786.892 175.473 787 148Z" fill="#4D0061"/>
<path d="M160 0C191.35 0 222.7 0 255 0C255 48.84 255 97.68 255 148C302.19 148 349.38 148 398 148C398 179.35 398 210.7 398 243C350.81 243 303.62 243 255 243C255.062 262.8 255.124 282.6 255.188 303C255.194 309.224 255.201 315.447 255.208 321.859C255.238 327.498 255.238 327.498 255.274 333.137C255.287 335.624 255.29 338.112 255.286 340.6C255.254 364.744 258.406 385.363 276.113 403.277C293.116 419.314 310.973 423.436 333.547 423.512C335.203 423.527 336.858 423.544 338.514 423.562C344.593 423.62 350.671 423.652 356.75 423.688C370.363 423.791 383.975 423.894 398 424C398 455.02 398 486.04 398 518C382.903 518.083 367.805 518.165 352.25 518.25C347.525 518.286 342.799 518.323 337.931 518.36C332.054 518.378 332.054 518.378 329.283 518.382C327.392 518.388 325.501 518.402 323.61 518.422C283.279 518.839 246.3 503.432 216 477C215.202 476.323 214.404 475.646 213.582 474.949C208.587 470.64 204.159 466.118 200 461C199.251 460.089 198.502 459.177 197.73 458.238C187.177 444.993 178.618 430.581 172 415C171.54 413.937 171.08 412.873 170.605 411.777C160.726 387.69 159.549 362.051 159.707 336.359C159.714 333.653 159.717 330.946 159.72 328.239C159.729 321.9 159.754 315.562 159.784 309.223C159.818 301.992 159.834 294.76 159.849 287.529C159.88 272.686 159.935 257.843 160 243C144.82 243 129.64 243 114 243C114 211.65 114 180.3 114 148C129.18 148 144.36 148 160 148C160 99.16 160 50.32 160 0Z" fill="#4E0162"/>
<path d="M1321.81 133.625C1322.72 133.625 1323.62 133.625 1324.55 133.626C1339 133.659 1352.93 134.47 1367 138C1367.73 138.182 1368.47 138.364 1369.22 138.551C1401.23 146.851 1429.14 164.57 1453 187C1453.69 187.621 1454.37 188.243 1455.08 188.883C1462.33 195.688 1468.23 203.938 1474 212C1474.52 212.717 1475.04 213.433 1475.58 214.172C1476.05 214.868 1476.53 215.564 1477.02 216.281C1477.45 216.901 1477.88 217.52 1478.32 218.158C1479 220 1479 220 1478.41 221.735C1476.41 224.942 1473.8 227.448 1471.13 230.082C1470.53 230.681 1469.93 231.28 1469.31 231.897C1467.33 233.873 1465.34 235.843 1463.35 237.812C1461.97 239.187 1460.59 240.561 1459.21 241.937C1455.57 245.556 1451.94 249.17 1448.3 252.782C1442.47 258.563 1436.66 264.35 1430.84 270.141C1428.81 272.162 1426.78 274.179 1424.74 276.196C1423.49 277.437 1422.25 278.677 1421 279.918C1420.43 280.477 1419.87 281.036 1419.29 281.612C1416.62 284.268 1414.15 286.907 1412 290C1409 289 1409 289 1407.27 285.824C1406.64 284.448 1406 283.069 1405.37 281.687C1396.68 263.574 1383.38 249.814 1366 240C1364.99 239.424 1363.97 238.848 1362.93 238.254C1343.15 228.099 1318.11 227.015 1297.03 233.618C1274.51 241.28 1257.61 256.509 1246 277C1245.39 278.058 1244.78 279.117 1244.15 280.207C1235.49 296.248 1231.81 313.628 1231.81 331.741C1231.81 333.731 1231.79 335.721 1231.78 337.711C1231.74 361.61 1239.93 383.309 1256 401C1256.55 401.632 1257.1 402.263 1257.67 402.914C1269.78 416.013 1286.98 423.823 1304 428C1304.89 428.265 1304.89 428.265 1305.79 428.535C1311.05 429.643 1316.64 429.185 1322 429.187C1323.26 429.2 1324.53 429.212 1325.83 429.225C1337.21 429.242 1347.55 428.074 1358.12 423.75C1359.28 423.286 1359.28 423.286 1360.46 422.812C1366.34 420.4 1371.79 417.665 1377 414C1377.74 413.479 1378.48 412.958 1379.25 412.422C1392.25 402.78 1402.05 390.572 1409 376C1413.69 379.927 1418.16 384.001 1422.5 388.309C1423.11 388.908 1423.72 389.507 1424.34 390.125C1426.32 392.083 1428.3 394.045 1430.28 396.008C1430.96 396.681 1431.64 397.355 1432.34 398.049C1435.92 401.603 1439.5 405.161 1443.07 408.722C1446.03 411.668 1449 414.606 1451.97 417.539C1455.57 421.088 1459.15 424.649 1462.73 428.219C1464.1 429.576 1465.46 430.929 1466.84 432.278C1468.75 434.157 1470.64 436.051 1472.53 437.95C1473.11 438.506 1473.68 439.062 1474.27 439.634C1475.81 441.206 1475.81 441.206 1478 444C1477.72 454.762 1460.03 468.525 1452.96 475.395C1421.74 504.92 1376.81 524.828 1333.61 525.238C1332.75 525.248 1331.89 525.258 1331.01 525.268C1295.76 525.588 1295.76 525.588 1279 521C1278.15 520.78 1277.31 520.561 1276.44 520.334C1228.56 507.752 1186.22 476.294 1160.87 433.75C1147.93 411.404 1139.81 388.545 1136 363C1135.82 361.926 1135.65 360.852 1135.47 359.746C1134.95 355.572 1134.82 351.506 1134.8 347.305C1134.79 346.483 1134.78 345.662 1134.78 344.816C1134.76 342.169 1134.75 339.522 1134.75 336.875C1134.75 335.972 1134.75 335.07 1134.75 334.139C1134.76 320.858 1135.21 308.028 1138 295C1138.17 294.167 1138.33 293.333 1138.5 292.475C1145.76 256.502 1162.4 223.239 1187 196C1187.77 195.112 1188.54 194.224 1189.33 193.309C1214.43 164.568 1251.56 143.282 1289 136C1289.88 135.823 1290.76 135.647 1291.67 135.465C1301.7 133.676 1311.66 133.603 1321.81 133.625Z" fill="#4D0061"/>
<path d="M610 232C611.179 232.29 611.179 232.29 612.383 232.586C624.58 236.157 636.743 242.318 646 251C646.975 251.884 647.949 252.769 648.953 253.68C666.112 269.692 678.012 293.706 679.161 317.311C679.53 347.239 679.53 347.239 676 359C675.507 360.792 675.507 360.792 675.004 362.621C670.57 377.364 663.444 390.663 653 402C652.176 402.944 652.176 402.944 651.336 403.906C638.324 418.008 616.772 428.958 597.63 430.223C593.731 430.341 589.838 430.388 585.937 430.375C585.246 430.374 584.555 430.373 583.843 430.371C561.141 430.263 543.579 423.302 526 409C524.948 408.216 523.896 407.433 522.812 406.625C504.175 389.23 492.549 363.939 491.656 338.563C490.944 307.239 496.986 280.228 518.449 256.266C542.379 231.472 577.098 223.717 610 232Z" fill="#FEFEFE"/>
<path d="M94 434C106.757 442.838 116.56 456.261 119.758 471.727C121.776 490.669 118.227 507.326 106.297 522.316C97.5907 532.488 83.4716 541.045 70 543C52.3908 544.214 35.8625 540.885 22.1038 529.088C9.45497 517.595 1.90002 503.773 0.78125 486.652C0.318968 469.259 5.77266 454.802 17.6655 442.115C38.3763 421.189 69.4098 418.665 94 434Z" fill="#4E0161"/>
<path d="M422.812 17.7501C424.233 18.8012 425.63 19.8841 427 21.0001C427.626 21.5028 428.253 22.0055 428.898 22.5235C434.96 27.9497 438.454 35.3615 441 43.0001C441.09 45.2234 441.118 47.4495 441.114 49.6746C441.114 50.3481 441.114 51.0215 441.114 51.7153C441.113 53.9392 441.105 56.163 441.098 58.3868C441.096 59.9295 441.094 61.4722 441.093 63.0149C441.09 67.0739 441.08 71.1329 441.069 75.1918C441.058 79.3343 441.054 83.4768 441.049 87.6192C441.038 95.7462 441.021 103.873 441 112C434.4 112 427.8 112 421 112C421 105.4 421 98.8001 421 92.0001C407.8 92.0001 394.6 92.0001 381 92.0001C381 98.6001 381 105.2 381 112C374.4 112 367.8 112 361 112C360.909 103.454 360.836 94.909 360.793 86.3629C360.772 82.3935 360.744 78.4245 360.698 74.4554C360.654 70.6169 360.631 66.7787 360.62 62.9399C360.613 61.4836 360.599 60.0274 360.577 58.5712C360.379 44.7728 363.182 33.3569 372.812 23.0626C386.413 10.3399 406.714 7.56275 422.812 17.7501Z" fill="#4E0262"/>
<path d="M513.125 42.25C514.423 43.1574 515.717 44.0706 517 45C517.447 44.4225 517.895 43.845 518.355 43.25C519.262 42.1362 519.262 42.1362 520.188 41C520.779 40.2575 521.371 39.515 521.98 38.75C524.514 36.5546 525.749 36.8502 529 37C529.093 45.9023 529.164 54.8044 529.207 63.707C529.228 67.8422 529.256 71.977 529.302 76.112C529.346 80.1127 529.369 84.113 529.38 88.1138C529.387 89.6299 529.401 91.1459 529.423 92.6618C529.623 107.137 527.462 119.129 517.223 129.863C509.006 137.71 501.02 140.448 489.813 140.312C486.904 140.209 483.996 140.106 481 140C481 134.06 481 128.12 481 122C483.145 121.917 485.29 121.835 487.5 121.75C493.377 121.317 498.319 120.776 503 117C504.659 115.061 505.768 113.259 507 111C504.852 110.883 504.852 110.883 502.414 111.973C492.512 114.952 480.77 114.099 471.547 109.539C462.181 103.879 455.782 95.6909 453 85C451.283 70.1627 452.584 58.5874 461.895 46.5508C475.729 31.3079 496.888 31.6265 513.125 42.25Z" fill="#4F0463"/>
<path d="M860.605 40.6016C862.775 42.0213 864.901 43.4786 867 45C867.447 44.4225 867.895 43.845 868.355 43.25C869.262 42.1362 869.262 42.1362 870.188 41C870.779 40.2575 871.371 39.515 871.98 38.75C874 37 874 37 879 37C879 61.75 879 86.5 879 112C874 112 874 112 871.98 110.031C871.389 109.196 870.797 108.361 870.188 107.5C869.583 106.665 868.978 105.829 868.355 104.969C867.908 104.319 867.461 103.669 867 103C866.047 103.554 865.095 104.109 864.113 104.68C862.846 105.412 861.58 106.143 860.313 106.875C859.374 107.422 859.374 107.422 858.416 107.98C848.604 113.631 838.616 114.846 827.535 112.16C816.711 108.023 809.903 101.456 805.152 90.9414C800.901 80.0884 800.491 68.9466 804.621 57.9531C809.126 48.3057 815.351 41.6033 825 37C837.265 32.7544 849.635 33.858 860.605 40.6016Z" fill="#500663"/>
<path d="M601 42C606.393 46.139 606.393 46.139 608 49C607.804 52.816 605.515 55.1095 603.125 57.9375C602.313 58.9056 601.501 59.8736 600.664 60.8711C599.777 61.9144 598.888 62.9574 598 64C597.091 65.0739 596.182 66.1481 595.273 67.2226C593.885 68.8642 592.495 70.5053 591.104 72.1443C585.286 79.0012 579.61 85.9719 574 93C579.841 93.3074 583.767 92.962 589 90C590.911 88.1035 592.399 86.1833 594 84C597.813 85.5895 600.373 88.0076 603.312 90.875C604.216 91.7386 605.12 92.6023 606.051 93.4922C608 96 608 96 608.031 98.0742C604.343 104.961 596.599 109.499 589.496 112.141C577.798 115.016 567.336 114.016 556.922 107.969C547.847 101.854 541.675 92.727 539.324 81.8828C537.879 69.0318 540.137 57.6257 548.074 47.1562C561.97 31.598 584.349 30.6791 601 42Z" fill="#4F0462"/>
<path d="M671.875 42.125C679.144 48.2989 682.509 55.7599 684 65C684.247 68.6514 684.235 72.283 684.195 75.9414C684.192 76.9497 684.19 77.9579 684.187 78.9968C684.176 82.1855 684.151 85.3739 684.125 88.5625C684.115 90.7376 684.106 92.9127 684.098 95.0879C684.076 100.392 684.041 105.696 684 111C677.73 111 671.46 111 665 111C664.991 109.608 664.981 108.215 664.972 106.781C664.932 101.603 664.866 96.4262 664.792 91.249C664.764 89.0105 664.743 86.7718 664.729 84.5332C664.708 81.3106 664.661 78.0893 664.609 74.8672C664.608 73.8701 664.607 72.873 664.606 71.8456C664.482 65.9367 663.91 62.5176 660 58C655.613 54.911 650.129 55.2513 645 56C641.825 57.6549 639.623 59.7535 638 63C637.882 64.572 637.823 66.1488 637.795 67.7251C637.775 68.7059 637.755 69.6868 637.734 70.6974C637.709 72.2896 637.709 72.2896 637.684 73.914C637.663 74.9988 637.642 76.0836 637.621 77.2012C637.555 80.6757 637.496 84.1503 637.438 87.625C637.394 89.9765 637.351 92.3281 637.307 94.6797C637.199 100.453 637.098 106.226 637 112C630.4 112 623.8 112 617 112C617 87.25 617 62.5 617 37C623 37 623 37 624.68 38.3125C625.786 39.875 626.893 41.4375 628 43C628.629 42.59 629.258 42.1801 629.906 41.7578C643.716 33.0641 658.11 32.3226 671.875 42.125Z" fill="#510764"/>
<path d="M750.52 39.2968C754.991 42.3672 759.016 45.409 762 49.9999C761.858 54.3662 758.504 56.9014 755.562 59.7499C755.059 60.2565 754.556 60.7631 754.037 61.2851C750.267 64.9999 750.267 64.9999 748 64.9999C747.278 63.9068 746.556 62.8137 745.812 61.6874C743.183 57.923 740.523 55.9572 736 54.9999C730.626 54.2946 725.739 54.0153 721.062 57.0624C716.552 60.9872 714.267 64.3968 713.656 70.3515C713.478 77.3928 713.467 83.2149 718.535 88.6445C724.532 93.2301 728.501 93.7286 736 92.9999C741.397 91.3585 744.845 88.7321 748 83.9999C751.813 85.5895 754.373 88.0075 757.312 90.8749C758.216 91.7386 759.12 92.6023 760.051 93.4921C762 95.9999 762 95.9999 762.043 98.0703C758.26 105.069 750.361 109.622 743 112C734.146 114.244 722.943 114.549 714.812 110.129C714.214 109.756 713.616 109.384 713 109C711.969 108.402 710.937 107.804 709.875 107.187C701.318 100.676 695.494 92.831 693.285 82.1093C691.756 70.7951 693.906 60.2524 700.187 50.6249C712.248 34.818 732.903 29.2304 750.52 39.2968Z" fill="#4F0463"/>
<path d="M772 37C778.6 37 785.2 37 792 37C792 61.75 792 86.5 792 112C785.4 112 778.8 112 772 112C772 87.25 772 62.5 772 37Z" fill="#550E68"/>
<path d="M407 31.9999C412.96 34.3093 416.78 38.3872 420.089 43.7724C421.267 46.6528 421.226 48.97 421.195 52.0781C421.19 53.1238 421.185 54.1696 421.18 55.247C421.162 56.568 421.144 57.8889 421.125 59.2499C421.084 63.4574 421.043 67.6649 421 71.9999C407.8 71.9999 394.6 71.9999 381 71.9999C380.918 68.0399 380.835 64.0799 380.75 59.9999C380.714 58.7676 380.677 57.5352 380.64 56.2656C380.573 49.6338 380.975 44.4424 385 38.9999C387.07 36.9413 387.07 36.9413 389.125 35.5624C390.15 34.8528 390.15 34.8528 391.195 34.1288C396.139 31.0364 401.308 31.3651 407 31.9999Z" fill="#FCFCFD"/>
<path d="M849.312 55.4374C853.996 58.2188 857.006 61.9461 859 66.9999C859.822 72.677 859.631 77.8713 858 83.3749C854.553 87.8995 850.466 92.178 845 94C839.788 94.4991 835.396 94.6722 830.625 92.375C825.378 87.6273 822.347 84.0227 821.727 76.8281C821.387 64.8485 821.387 64.8485 825.465 59.5546C831.97 52.9666 840.73 51.8695 849.312 55.4374Z" fill="#FCFCFD"/>
<path d="M499.313 55.4374C503.996 58.2188 507.006 61.9461 509 66.9999C509.822 72.677 509.631 77.8713 508 83.3749C504.553 87.8995 500.466 92.178 495 94C489.733 94.5044 485.368 94.6716 480.563 92.3125C475.511 87.7539 472.408 83.5927 471.629 76.7304C471.406 64.8236 471.406 64.8236 475.465 59.5546C481.97 52.9666 490.73 51.8695 499.313 55.4374Z" fill="#FCFCFD"/>
<path d="M573 2C577.704 4.13321 581.012 7.44296 584.75 10.9375C585.447 11.5711 586.145 12.2046 586.863 12.8574C587.522 13.4704 588.181 14.0833 588.859 14.7148C589.462 15.2729 590.065 15.831 590.686 16.406C592 18 592 18 592 21C590.687 23.043 590.687 23.043 589 25.1875C588.443 25.9029 587.886 26.6184 587.312 27.3555C586.879 27.8982 586.446 28.4409 586 29C582.814 27.6037 580.761 25.9544 578.375 23.4375C575.955 20.8598 575.955 20.8598 573 19C573 19.66 573 20.32 573 21C571.355 22.7266 571.355 22.7266 569.187 24.625C568.126 25.5725 568.126 25.5725 567.043 26.5391C565 28 565 28 562 28C560.176 26.25 560.176 26.25 558.312 24C557.69 23.2575 557.067 22.515 556.426 21.75C555.955 21.1725 555.485 20.595 555 20C560.367 13.2918 566.617 7.71194 573 2Z" fill="#500764"/>
<path d="M785 3.99999C789.29 6.2714 792.478 8.82895 795 13C795.627 17.3135 795.323 19.3993 793.25 23.25C790.668 26.4059 788.722 28.659 784.633 29.4687C780.272 29.5231 777.009 29.55 773.5 26.75C770.194 23.1129 769.168 21.5099 768.625 16.625C769.075 12.2765 770.202 10.3272 773 6.99999C776.927 3.81613 780.012 3.38739 785 3.99999Z" fill="#510764"/>
<path d="M576.625 53.9375C578.129 53.9511 578.129 53.9511 579.664 53.9649C580.435 53.9765 581.206 53.9881 582 54C580.72 57.556 579.237 60.2653 576.883 63.2149C576.276 63.9838 575.669 64.7527 575.043 65.5449C574.41 66.3345 573.777 67.124 573.125 67.9375C569.217 72.8483 565.381 77.7082 562 83C561.01 82.67 560.02 82.34 559 82C558.247 65.7533 558.247 65.7533 563 60C567.468 55.6684 570.388 53.865 576.625 53.9375Z" fill="#FAF9FA"/>
</svg>
